<svg xmlns="http://www.w3.org/2000/svg">
  <defs>
    <!-- Icons go here -->
    <symbol id="icon-home" viewBox="0 -0.5 25 25">
        <path d="M5.10572 9.36198C4.75336 9.57974 4.64425 10.0419 4.862 10.3943C5.07976 10.7466 5.54193 10.8557 5.89428 10.638L5.10572 9.36198ZM7.89428 9.40198C8.24664 9.18422 8.35575 8.72205 8.138 8.3697C7.92024 8.01734 7.45807 7.90823 7.10572 8.12598L7.89428 9.40198ZM8.25 8.76398C8.25 8.34977 7.91421 8.01398 7.5 8.01398C7.08579 8.01398 6.75 8.34977 6.75 8.76398H8.25ZM10.5 17.75C10.9142 17.75 11.25 17.4142 11.25 17C11.25 16.5858 10.9142 16.25 10.5 16.25V17.75ZM7.10562 8.12604C6.7533 8.34385 6.64425 8.80604 6.86206 9.15836C7.07987 9.51068 7.54206 9.61973 7.89438 9.40192L7.10562 8.12604ZM11.662 6.19098L11.337 5.51504C11.3132 5.52648 11.2901 5.53916 11.2676 5.55304L11.662 6.19098ZM13.338 6.19098L13.7324 5.55304C13.7099 5.53916 13.6868 5.52648 13.663 5.51504L13.338 6.19098ZM17.1056 9.40192C17.4579 9.61973 17.9201 9.51068 18.1379 9.15836C18.3557 8.80604 18.2467 8.34385 17.8944 8.12604L17.1056 9.40192ZM9.75 17C9.75 17.4142 10.0858 17.75 10.5 17.75C10.9142 17.75 11.25 17.4142 11.25 17H9.75ZM13.75 17C13.75 17.4142 14.0858 17.75 14.5 17.75C14.9142 17.75 15.25 17.4142 15.25 17H13.75ZM10.5 16.25C10.0858 16.25 9.75 16.5858 9.75 17C9.75 17.4142 10.0858 17.75 10.5 17.75V16.25ZM14.5 17.75C14.9142 17.75 15.25 17.4142 15.25 17C15.25 16.5858 14.9142 16.25 14.5 16.25V17.75ZM14.5 16.25C14.0858 16.25 13.75 16.5858 13.75 17C13.75 17.4142 14.0858 17.75 14.5 17.75V16.25ZM18.25 8.76398C18.25 8.34977 17.9142 8.01398 17.5 8.01398C17.0858 8.01398 16.75 8.34977 16.75 8.76398H18.25ZM17.8943 8.12598C17.5419 7.90823 17.0798 8.01734 16.862 8.3697C16.6442 8.72205 16.7534 9.18422 17.1057 9.40198L17.8943 8.12598ZM19.1057 10.638C19.4581 10.8557 19.9202 10.7466 20.138 10.3943C20.3558 10.0419 20.2466 9.57974 19.8943 9.36198L19.1057 10.638ZM5.89428 10.638L7.89428 9.40198L7.10572 8.12598L5.10572 9.36198L5.89428 10.638ZM6.75 8.76398V15.5H8.25V8.76398H6.75ZM6.75 15.5C6.75 16.1176 6.90676 16.7486 7.43266 17.1962C7.92874 17.6184 8.61023 17.75 9.35 17.75V16.25C8.73977 16.25 8.49626 16.1317 8.40484 16.0538C8.34324 16.0014 8.25 15.8824 8.25 15.5H6.75ZM9.35 17.75H10.5V16.25H9.35V17.75ZM7.89438 9.40192L12.0564 6.82892L11.2676 5.55304L7.10562 8.12604L7.89438 9.40192ZM11.987 6.86692C12.3112 6.71103 12.6888 6.71103 13.013 6.86692L13.663 5.51504C12.9279 5.16165 12.0721 5.16165 11.337 5.51504L11.987 6.86692ZM12.9436 6.82892L17.1056 9.40192L17.8944 8.12604L13.7324 5.55304L12.9436 6.82892ZM11.25 17V16H9.75V17H11.25ZM11.25 16C11.25 15.3096 11.8096 14.75 12.5 14.75V13.25C10.9812 13.25 9.75 14.4812 9.75 16H11.25ZM12.5 14.75C13.1904 14.75 13.75 15.3096 13.75 16H15.25C15.25 14.4812 14.0188 13.25 12.5 13.25V14.75ZM13.75 16V17H15.25V16H13.75ZM10.5 17.75H14.5V16.25H10.5V17.75ZM14.5 17.75H15.65V16.25H14.5V17.75ZM15.65 17.75C16.3898 17.75 17.0713 17.6184 17.5673 17.1962C18.0932 16.7486 18.25 16.1176 18.25 15.5H16.75C16.75 15.8824 16.6568 16.0014 16.5952 16.0538C16.5037 16.1317 16.2602 16.25 15.65 16.25V17.75ZM18.25 15.5V8.76398H16.75V15.5H18.25ZM17.1057 9.40198L19.1057 10.638L19.8943 9.36198L17.8943 8.12598L17.1057 9.40198Z" fill="#000000"/>
    </symbol>
    <symbol id="icon-stats" viewBox="0 -0.5 25 25">
        <path d="M5.11413 8.35688C4.75894 8.56999 4.64377 9.03069 4.85688 9.38587C5.06999 9.74106 5.53069 9.85623 5.88587 9.64312L5.11413 8.35688ZM10.5 6L10.95 5.4C10.7061 5.21704 10.3756 5.19999 10.1141 5.35688L10.5 6ZM14.5 9L14.05 9.6C14.3236 9.80522 14.7014 9.79932 14.9685 9.58565L14.5 9ZM19.9685 5.58565C20.292 5.32689 20.3444 4.85493 20.0857 4.53148C19.8269 4.20803 19.3549 4.15559 19.0315 4.41435L19.9685 5.58565ZM17.75 19C17.75 19.4142 18.0858 19.75 18.5 19.75C18.9142 19.75 19.25 19.4142 19.25 19H17.75ZM19.25 11C19.25 10.5858 18.9142 10.25 18.5 10.25C18.0858 10.25 17.75 10.5858 17.75 11H19.25ZM9.75 19C9.75 19.4142 10.0858 19.75 10.5 19.75C10.9142 19.75 11.25 19.4142 11.25 19H9.75ZM11.25 11C11.25 10.5858 10.9142 10.25 10.5 10.25C10.0858 10.25 9.75 10.5858 9.75 11H11.25ZM13.75 19C13.75 19.4142 14.0858 19.75 14.5 19.75C14.9142 19.75 15.25 19.4142 15.25 19H13.75ZM15.25 14C15.25 13.5858 14.9142 13.25 14.5 13.25C14.0858 13.25 13.75 13.5858 13.75 14H15.25ZM5.75 19C5.75 19.4142 6.08579 19.75 6.5 19.75C6.91421 19.75 7.25 19.4142 7.25 19H5.75ZM7.25 14C7.25 13.5858 6.91421 13.25 6.5 13.25C6.08579 13.25 5.75 13.5858 5.75 14H7.25ZM5.88587 9.64312L10.8859 6.64312L10.1141 5.35688L5.11413 8.35688L5.88587 9.64312ZM10.05 6.6L14.05 9.6L14.95 8.4L10.95 5.4L10.05 6.6ZM14.9685 9.58565L19.9685 5.58565L19.0315 4.41435L14.0315 8.41435L14.9685 9.58565ZM19.25 19V11H17.75V19H19.25ZM11.25 19V11H9.75V19H11.25ZM15.25 19V14H13.75V19H15.25ZM7.25 19V14H5.75V19H7.25Z" fill="#000000"/>
    </symbol>
    <symbol id="icon-team" viewBox="0 -0.5 25 25">
        <path fill-rule="evenodd" clip-rule="evenodd" d="M14.9238 7.281C14.9227 8.5394 13.9018 9.55874 12.6435 9.558C11.3851 9.55726 10.3654 8.53673 10.3658 7.27833C10.3662 6.01994 11.3864 5 12.6448 5C13.2495 5.00027 13.8293 5.24073 14.2567 5.6685C14.6841 6.09627 14.924 6.67631 14.9238 7.281Z" stroke="#000000" stroke-width="1.5" stroke-linecap="round" stroke-linejoin="round"/>
        <path fill-rule="evenodd" clip-rule="evenodd" d="M14.9968 12.919H10.2968C8.65471 12.9706 7.35028 14.3166 7.35028 15.9595C7.35028 17.6024 8.65471 18.9484 10.2968 19H14.9968C16.6388 18.9484 17.9432 17.6024 17.9432 15.9595C17.9432 14.3166 16.6388 12.9706 14.9968 12.919V12.919Z" stroke="#000000" stroke-width="1.5" stroke-linecap="round" stroke-linejoin="round"/>
        <path fill-rule="evenodd" clip-rule="evenodd" d="M20.6878 9.02403C20.6872 9.98653 19.9066 10.7664 18.9441 10.766C17.9816 10.7657 17.2016 9.9852 17.2018 9.0227C17.202 8.06019 17.9823 7.28003 18.9448 7.28003C19.4072 7.28003 19.8507 7.4638 20.1776 7.7909C20.5045 8.11799 20.688 8.56158 20.6878 9.02403V9.02403Z" stroke="#000000" stroke-width="1.5" stroke-linecap="round" stroke-linejoin="round"/>
        <path fill-rule="evenodd" clip-rule="evenodd" d="M4.3338 9.02401C4.3338 9.98664 5.11417 10.767 6.0768 10.767C7.03943 10.767 7.8198 9.98664 7.8198 9.02401C7.8198 8.06137 7.03943 7.28101 6.0768 7.28101C5.11417 7.28101 4.3338 8.06137 4.3338 9.02401V9.02401Z" stroke="#000000" stroke-width="1.5" stroke-linecap="round" stroke-linejoin="round"/>
        <path d="M19.4368 12.839C19.0226 12.839 18.6868 13.1748 18.6868 13.589C18.6868 14.0032 19.0226 14.339 19.4368 14.339V12.839ZM20.7438 13.589L20.7593 12.8392C20.7541 12.839 20.749 12.839 20.7438 12.839V13.589ZM20.7438 18.24V18.99C20.749 18.99 20.7541 18.9899 20.7593 18.9898L20.7438 18.24ZM19.4368 17.49C19.0226 17.49 18.6868 17.8258 18.6868 18.24C18.6868 18.6542 19.0226 18.99 19.4368 18.99V17.49ZM5.58477 14.339C5.99899 14.339 6.33477 14.0032 6.33477 13.589C6.33477 13.1748 5.99899 12.839 5.58477 12.839V14.339ZM4.27777 13.589V12.839C4.27259 12.839 4.26741 12.839 4.26222 12.8392L4.27777 13.589ZM4.27777 18.24L4.26222 18.9898C4.26741 18.9899 4.27259 18.99 4.27777 18.99V18.24ZM5.58477 18.99C5.99899 18.99 6.33477 18.6542 6.33477 18.24C6.33477 17.8258 5.99899 17.49 5.58477 17.49V18.99ZM19.4368 14.339H20.7438V12.839H19.4368V14.339ZM20.7282 14.3388C21.5857 14.3566 22.2715 15.0568 22.2715 15.9145H23.7715C23.7715 14.2405 22.4329 12.8739 20.7593 12.8392L20.7282 14.3388ZM22.2715 15.9145C22.2715 16.7722 21.5857 17.4724 20.7282 17.4902L20.7593 18.9898C22.4329 18.9551 23.7715 17.5885 23.7715 15.9145H22.2715ZM20.7438 17.49H19.4368V18.99H20.7438V17.49ZM5.58477 12.839H4.27777V14.339H5.58477V12.839ZM4.26222 12.8392C2.58861 12.8739 1.25 14.2405 1.25 15.9145H2.75C2.75 15.0568 3.43584 14.3566 4.29332 14.3388L4.26222 12.8392ZM1.25 15.9145C1.25 17.5885 2.58861 18.9551 4.26222 18.9898L4.29332 17.4902C3.43584 17.4724 2.75 16.7722 2.75 15.9145H1.25ZM4.27777 18.99H5.58477V17.49H4.27777V18.99Z" fill="#000000"/>
    </symbol>
    <symbol id="icon-roster" viewBox="0 -0.5 25 25">
        <path d="M16.5 9.75C16.9142 9.75 17.25 9.41421 17.25 9C17.25 8.58579 16.9142 8.25 16.5 8.25V9.75ZM10.5 8.25C10.0858 8.25 9.75 8.58579 9.75 9C9.75 9.41421 10.0858 9.75 10.5 9.75V8.25ZM16.5 12.75C16.9142 12.75 17.25 12.4142 17.25 12C17.25 11.5858 16.9142 11.25 16.5 11.25V12.75ZM10.5 11.25C10.0858 11.25 9.75 11.5858 9.75 12C9.75 12.4142 10.0858 12.75 10.5 12.75V11.25ZM13.5 15.75C13.9142 15.75 14.25 15.4142 14.25 15C14.25 14.5858 13.9142 14.25 13.5 14.25V15.75ZM10.5 14.25C10.0858 14.25 9.75 14.5858 9.75 15C9.75 15.4142 10.0858 15.75 10.5 15.75V14.25ZM7.5 14.75C7.91421 14.75 8.25 14.4142 8.25 14C8.25 13.5858 7.91421 13.25 7.5 13.25V14.75ZM6.5 13.25C6.08579 13.25 5.75 13.5858 5.75 14C5.75 14.4142 6.08579 14.75 6.5 14.75V13.25ZM4.5 13.25C4.08579 13.25 3.75 13.5858 3.75 14C3.75 14.4142 4.08579 14.75 4.5 14.75V13.25ZM6.5 14.75C6.91421 14.75 7.25 14.4142 7.25 14C7.25 13.5858 6.91421 13.25 6.5 13.25V14.75ZM7.5 10.75C7.91421 10.75 8.25 10.4142 8.25 10C8.25 9.58579 7.91421 9.25 7.5 9.25V10.75ZM6.5 9.25C6.08579 9.25 5.75 9.58579 5.75 10C5.75 10.4142 6.08579 10.75 6.5 10.75V9.25ZM4.5 9.25C4.08579 9.25 3.75 9.58579 3.75 10C3.75 10.4142 4.08579 10.75 4.5 10.75V9.25ZM6.5 10.75C6.91421 10.75 7.25 10.4142 7.25 10C7.25 9.58579 6.91421 9.25 6.5 9.25V10.75ZM5.75 10C5.75 10.4142 6.08579 10.75 6.5 10.75C6.91421 10.75 7.25 10.4142 7.25 10H5.75ZM6.5 15H5.75H6.5ZM7.25 14C7.25 13.5858 6.91421 13.25 6.5 13.25C6.08579 13.25 5.75 13.5858 5.75 14H7.25ZM7.25 10C7.25 9.58579 6.91421 9.25 6.5 9.25C6.08579 9.25 5.75 9.58579 5.75 10H7.25ZM5.75 14C5.75 14.4142 6.08579 14.75 6.5 14.75C6.91421 14.75 7.25 14.4142 7.25 14H5.75ZM16.5 8.25H10.5V9.75H16.5V8.25ZM16.5 11.25H10.5V12.75H16.5V11.25ZM13.5 14.25H10.5V15.75H13.5V14.25ZM7.5 13.25H6.5V14.75H7.5V13.25ZM4.5 14.75H6.5V13.25H4.5V14.75ZM7.5 9.25H6.5V10.75H7.5V9.25ZM4.5 10.75H6.5V9.25H4.5V10.75ZM7.25 10V9H5.75V10H7.25ZM7.25 9C7.25 7.20507 8.70507 5.75 10.5 5.75V4.25C7.87665 4.25 5.75 6.37665 5.75 9H7.25ZM10.5 5.75H16.5V4.25H10.5V5.75ZM16.5 5.75C18.2949 5.75 19.75 7.20507 19.75 9H21.25C21.25 6.37665 19.1234 4.25 16.5 4.25V5.75ZM19.75 9V15H21.25V9H19.75ZM19.75 15C19.75 16.7949 18.2949 18.25 16.5 18.25V19.75C19.1234 19.75 21.25 17.6234 21.25 15H19.75ZM16.5 18.25H10.5V19.75H16.5V18.25ZM10.5 18.25C8.70507 18.25 7.25 16.7949 7.25 15H5.75C5.75 17.6234 7.87665 19.75 10.5 19.75V18.25ZM7.25 15V14H5.75V15H7.25ZM5.75 10V14H7.25V10H5.75Z" fill="#000000"/>
    </symbol>
    <symbol id="icon-player" viewBox="0 -0.5 25 25">
        <path fill-rule="evenodd" clip-rule="evenodd" d="M14.9769 14H10.0229C8.56488 14.0724 7.2731 14.963 6.68693 16.3C5.97993 17.688 7.39093 19 9.03193 19H15.9679C17.6099 19 19.0209 17.688 18.3129 16.3C17.7268 14.963 16.435 14.0724 14.9769 14Z" stroke="#000000" stroke-width="1.5" stroke-linecap="round" stroke-linejoin="round"/>
        <path fill-rule="evenodd" clip-rule="evenodd" d="M15.4999 8C15.4999 9.65685 14.1568 11 12.4999 11C10.8431 11 9.49994 9.65685 9.49994 8C9.49994 6.34315 10.8431 5 12.4999 5C13.2956 5 14.0587 5.31607 14.6213 5.87868C15.1839 6.44129 15.4999 7.20435 15.4999 8Z" stroke="#000000" stroke-width="1.5" stroke-linecap="round" stroke-linejoin="round"/>
    </symbol>
    <symbol id="icon-game" viewBox="0 -0.5 25 25">
        <path fill-rule="evenodd" clip-rule="evenodd" d="M5.5 10V16C5.5 18.2091 7.29086 20 9.5 20H15.5C17.7091 20 19.5 18.2091 19.5 16V10C19.5 7.79086 17.7091 6 15.5 6H9.5C7.29086 6 5.5 7.79086 5.5 10Z" stroke="#000000" stroke-width="1.5" stroke-linecap="round" stroke-linejoin="round"/>
        <path d="M13.75 7C13.75 7.41421 14.0858 7.75 14.5 7.75C14.9142 7.75 15.25 7.41421 15.25 7H13.75ZM15.25 4C15.25 3.58579 14.9142 3.25 14.5 3.25C14.0858 3.25 13.75 3.58579 13.75 4H15.25ZM9.75 7C9.75 7.41421 10.0858 7.75 10.5 7.75C10.9142 7.75 11.25 7.41421 11.25 7H9.75ZM11.25 4C11.25 3.58579 10.9142 3.25 10.5 3.25C10.0858 3.25 9.75 3.58579 9.75 4H11.25ZM15.5 10.75C15.9142 10.75 16.25 10.4142 16.25 10C16.25 9.58579 15.9142 9.25 15.5 9.25V10.75ZM9.5 9.25C9.08579 9.25 8.75 9.58579 8.75 10C8.75 10.4142 9.08579 10.75 9.5 10.75V9.25ZM15.5 13.75C15.9142 13.75 16.25 13.4142 16.25 13C16.25 12.5858 15.9142 12.25 15.5 12.25V13.75ZM9.5 12.25C9.08579 12.25 8.75 12.5858 8.75 13C8.75 13.4142 9.08579 13.75 9.5 13.75V12.25ZM12.5 16.75C12.9142 16.75 13.25 16.4142 13.25 16C13.25 15.5858 12.9142 15.25 12.5 15.25V16.75ZM9.5 15.25C9.08579 15.25 8.75 15.5858 8.75 16C8.75 16.4142 9.08579 16.75 9.5 16.75V15.25ZM15.25 7V4H13.75V7H15.25ZM11.25 7V4H9.75V7H11.25ZM15.5 9.25H9.5V10.75H15.5V9.25ZM15.5 12.25H9.5V13.75H15.5V12.25ZM12.5 15.25H9.5V16.75H12.5V15.25Z" fill="#000000"/>
    </symbol>
  </defs>
</svg>